<?xml version="1.0" encoding="utf-8"?>
<!-- Generator: Adobe Illustrator 19.2.1, SVG Export Plug-In . SVG Version: 6.00 Build 0)  -->
<svg version="1.1" id="Layer_1" xmlns="http://www.w3.org/2000/svg" xmlns:xlink="http://www.w3.org/1999/xlink" x="0px" y="0px"
	 viewBox="0 0 50 50" style="enable-background:new 0 0 50 50;" xml:space="preserve">
<style type="text/css">
	.st0{fill:#8c8c8c;}
</style>
<path id="White_2_" class="st0" d="M46.8,0.4H3.1c-1.5,0-2.7,1.2-2.7,2.7v43.6c0,1.5,1.2,2.7,2.7,2.7h23.5v-19h-6.4v-7.4h6.4v-5.5
	c0-6.3,3.9-9.8,9.5-9.8c2.7,0,5,0.2,5.7,0.3v6.6l-3.9,0c-3.1,0-3.7,1.5-3.7,3.6v4.7h7.3l-1,7.4h-6.4v19h12.5c1.5,0,2.7-1.2,2.7-2.7
	V3.1C49.5,1.7,48.3,0.4,46.8,0.4z"/>
<g>
</g>
<g>
</g>
<g>
</g>
<g>
</g>
<g>
</g>
<g>
</g>
</svg>
